# xmcd
#
# Track frame offsets:
#        150
#        18625
#        33195
#        60812
#
# Disc length: 1116 seconds
#
# Revision: 0
# Processed by: cddbd v1.5.1PL2 Copyright (c) Steve Scherf et al.
# Submitted via: ExactAudioCopy v0.95a5
#
DISCID=23045a04
DTITLE=DJ Uppercut - Pieces
DYEAR=2003
DGENRE=Dance
TTITLE0=The Attack of Ninja
TTITLE1=De?
TTITLE2=Get out of here
TTITLE3=Rodeo Machine
EXTD=
EXTT0=
EXTT1=
EXTT2=
EXTT3=
PLAYORDER=
